<svg id="Calque_1" data-name="Calque 1" xmlns="http://www.w3.org/2000/svg" viewBox="0 0 269.9 280"><defs><style>.cls-1{fill:#7d7d7d;}</style></defs><title>Logo UE</title><path class="cls-1" d="M260.73,67A139.93,139.93,0,0,0,49.08,51,3.68,3.68,0,0,0,48,53.57V164.32c0,41.76,20.93,57.54,48.69,57.54,29.38,0,51.31-17,51.31-58.34V89a4,4,0,0,0-4-4H134a4,4,0,0,0-4,4v75.74c0,29.77-13,43-33.21,43-18.22,0-31.79-12.79-31.79-43V56.54A125,125,0,0,1,242.85,68.59a4,4,0,0,0,3,1.41H259.2A1.9,1.9,0,0,0,260.73,67Z" transform="translate(-8 -10)"/><path class="cls-1" d="M188.55,100h87.71a1.64,1.64,0,0,0,1.49-2.31l-4.7-10.4A3.9,3.9,0,0,0,269.5,85H170.55A2.55,2.55,0,0,0,168,87.55v130.9a2.55,2.55,0,0,0,2.55,2.55h80.33a124.83,124.83,0,0,1-106.64,53.94C78.17,273,24.64,219.18,23,153.1a124.86,124.86,0,0,1,6.75-43.81A3.83,3.83,0,0,0,30,108V84.22A2.63,2.63,0,0,0,25.06,83,139.35,139.35,0,0,0,8,147.92C6.88,225.51,70,289.76,147.55,290a139.92,139.92,0,0,0,121.12-69c2.21-3.73,4.24-7.58,6.09-11.52a2.44,2.44,0,0,0-2.2-3.48h-84a2.55,2.55,0,0,1-2.55-2.55v-43.9a2.55,2.55,0,0,1,2.55-2.55h46.54a3.91,3.91,0,0,0,3.91-3.91v-6.18a3.91,3.91,0,0,0-3.91-3.91H188.55a2.55,2.55,0,0,1-2.55-2.55v-37.9A2.55,2.55,0,0,1,188.55,100Z" transform="translate(-8 -10)"/></svg>