<svg id="Calque_1" data-name="Calque 1" xmlns="http://www.w3.org/2000/svg" viewBox="0 0 268.66 280"><title>Logo UE</title><path d="M48,164.32c0,41.76,20.93,57.54,48.69,57.54,29.38,0,51.31-17,51.31-58.34V89a4,4,0,0,0-4-4H134a4,4,0,0,0-4,4v75.74c0,29.77-13,43-33.21,43-18.22,0-31.79-12.79-31.79-43V56.54A126.48,126.48,0,0,0,48,75v89.33Z" transform="translate(-8 -10)"/><path d="M148,25a124.72,124.72,0,0,1,94.85,43.59,4,4,0,0,0,3,1.41H255a4,4,0,0,0,3.16-6.44A140,140,0,0,0,65,37.26V56.54A124.52,124.52,0,0,1,148,25Z" transform="translate(-8 -10)"/><path d="M144.24,274.94C78.17,273,24.64,219.18,23,153.1a124.86,124.86,0,0,1,6.75-43.81A3.83,3.83,0,0,0,30,108V84.22A2.63,2.63,0,0,0,25.06,83,139.34,139.34,0,0,0,8,147.91C6.88,225.51,69.94,289.76,147.55,290a139.92,139.92,0,0,0,121.12-69H250.88A124.83,124.83,0,0,1,144.24,274.94Z" transform="translate(-8 -10)"/><path d="M48,53.57V75A126.48,126.48,0,0,1,65,56.54V37.26A139.44,139.44,0,0,0,49.08,51,3.68,3.68,0,0,0,48,53.57Z" transform="translate(-8 -10)"/><path d="M188.55,100h84.21a3.89,3.89,0,0,0,3.55-5.5l-3.26-7.21A3.9,3.9,0,0,0,269.5,85H170.55A2.55,2.55,0,0,0,168,87.55v130.9a2.55,2.55,0,0,0,2.55,2.55h80.33a124.66,124.66,0,0,0,8.9-15H188.55a2.55,2.55,0,0,1-2.55-2.55v-43.9a2.55,2.55,0,0,1,2.55-2.55h46.54a3.91,3.91,0,0,0,3.91-3.91v-6.18a3.91,3.91,0,0,0-3.91-3.91H188.55a2.55,2.55,0,0,1-2.55-2.55v-37.9A2.55,2.55,0,0,1,188.55,100Z" transform="translate(-8 -10)"/><path d="M259.78,206a124.66,124.66,0,0,1-8.9,15h17.79q2.63-4.42,4.9-9.06a4.11,4.11,0,0,0-3.68-5.94Z" transform="translate(-8 -10)"/></svg>